<svg width="525" height="525" viewBox="0 0 525 525" fill="none" xmlns="http://www.w3.org/2000/svg">
<path d="M241.147 132.078C241.897 134.218 242.293 136.461 242.319 138.722L238.048 220.085L235.868 260.975C235.394 265.151 235.551 269.374 236.332 273.51C238.657 281.631 245.896 287.485 254.454 288.166L385.263 295.274C390.894 295.857 396.069 298.611 399.648 302.931C402.631 306.53 404.303 310.971 404.447 315.549L404.349 318.307C390.041 392.032 327.965 447.498 251.825 454.592C175.684 461.686 103.644 418.714 74.8171 349.008C66.5239 328.767 62.4258 307.121 62.7634 285.342C62.5898 278.862 62.9493 272.381 63.8384 265.963C73.3043 186.215 138.368 124.106 219.846 117.04C229.591 116.7 238.36 122.891 241.147 132.078Z" fill="#97A5EB"/>
<path opacity="0.4" d="M302.45 69.1341C391.076 82.0789 458.11 154.983 462.145 242.814L461.931 243.433L461.427 244.31L461.177 246.853C460.57 250.188 458.884 253.265 456.335 255.608C453.679 258.048 450.275 259.518 446.684 259.816L444.512 259.853L293.604 251.56C288.565 251.453 283.798 249.251 280.491 245.502C277.735 242.377 276.209 238.424 276.132 234.352L284.05 83.6197C283.936 83.0931 284.002 82.545 284.238 82.0605C284.87 77.9554 287.153 74.2775 290.575 71.8486C293.997 69.4197 298.274 68.442 302.45 69.1341Z" fill="#FFCC91"/>
</svg>
